<?xml version="1.0" encoding="utf-8"?>
<!-- Generator: Adobe Illustrator 20.0.0, SVG Export Plug-In . SVG Version: 6.00 Build 0)  -->
<svg version="1.1" id="レイヤー_1" xmlns="http://www.w3.org/2000/svg" xmlns:xlink="http://www.w3.org/1999/xlink" x="0px"
	 y="0px" viewBox="0 0 233.4 35.5" style="enable-background:new 0 0 233.4 35.5;" xml:space="preserve">
<style type="text/css">
	.st0{fill:#FFFFFF;}
</style>
<title>asset/logo_black</title>
<desc>Created with Sketch.</desc>
<g id="Page-1">
	<g id="Landing-Page" transform="translate(-48.000000, -36.000000)">
		<g id="_x30_1-Main">
			<g id="header" transform="translate(48.000000, 31.000000)">
				<g id="asset_x2F_logo_x5F_black-copy" transform="translate(0.000000, 5.000000)">
					<g id="logo">
						<g id="_1">
							<path id="Shape" class="st0" d="M27.1,7.8H8.8C8,7.9,7.3,7.5,6.9,6.9c-0.4-0.7-0.4-1.5,0-2.2c0.4-0.7,1.1-1,1.9-1h18.3
								c1.1,0.1,1.9,1,1.9,2S28.2,7.7,27.1,7.8L27.1,7.8z M14.6,17H2.3c-1.1-0.1-1.9-1-1.9-2s0.8-2,1.9-2h12.3c1.1,0.1,1.9,1,1.9,2
								S15.7,16.9,14.6,17L14.6,17z M14.6,26.2H2.3c-0.8,0.1-1.5-0.3-1.9-1s-0.4-1.5,0-2.2c0.4-0.7,1.1-1,1.9-1h12.3
								c0.8-0.1,1.5,0.3,1.9,1c0.4,0.7,0.4,1.5,0,2.2S15.4,26.3,14.6,26.2L14.6,26.2z M26.8,35.4H8.5c-1.1-0.1-1.9-1-1.9-2
								c0-1.1,0.8-2,1.9-2h18.3c0.8-0.1,1.5,0.3,1.9,1c0.4,0.7,0.4,1.5,0,2.2C28.3,35.1,27.6,35.5,26.8,35.4L26.8,35.4z"/>
							<g id="Group" transform="translate(46.828531, 0.000000)">
								<path id="Shape_1_" class="st0" d="M14.7,29.9c-0.2-0.2-0.6-0.2-0.8-0.1c-0.3,0.1-0.5,0.3-0.6,0.6c-0.9,1.9-2.8,3-4.9,2.9
									H8.2c-1.5,0-2.9-0.6-4-1.7c-1.1-1.1-1.6-2.5-1.6-4V17.5c0-1.5,0.6-2.9,1.6-4c1-1.1,2.5-1.7,4-1.6h0.2c2.1-0.1,4,1.1,4.9,2.9
									c0.1,0.3,0.3,0.5,0.6,0.6s0.6,0,0.8-0.1c0.3-0.1,0.5-0.3,0.6-0.6c0.1-0.3,0-0.6-0.1-0.8c-1.3-2.6-4-4.2-6.8-4.1H8.2
									c-4.3,0-7.8,3.5-7.8,7.9v10.1c0,4.3,3.5,7.9,7.8,7.9h0.2c2.9,0.1,5.6-1.5,6.8-4.1c0.2-0.3,0.3-0.6,0.2-0.9
									C15.3,30.3,15,30,14.7,29.9L14.7,29.9z M29,9.7h-0.2c-4.3,0-7.8,3.5-7.8,7.9v10.1c0,4.3,3.5,7.9,7.8,7.9H29
									c4.3,0,7.8-3.5,7.8-7.9V17.6C36.7,13.2,33.3,9.7,29,9.7L29,9.7z M34.6,17.5v10.1c0,1.5-0.6,3-1.6,4c-1,1.1-2.5,1.7-3.9,1.7
									h-0.2c-1.5,0-2.9-0.6-3.9-1.7c-1.1-1.1-1.7-2.5-1.6-4V17.5c0-1.5,0.6-2.9,1.6-4c1-1.1,2.5-1.6,3.9-1.6H29
									c1.5,0,2.9,0.6,4,1.6C34,14.6,34.6,16,34.6,17.5L34.6,17.5z M57.2,0.3c-0.3,0-0.6,0.1-0.8,0.3c-0.2,0.2-0.3,0.5-0.3,0.8
									v10.9c-1.4-1.5-3.4-2.4-5.5-2.4h-0.2c-4.3,0-7.8,3.5-7.8,7.9v9.9c0,4.3,3.5,7.9,7.8,7.9h0.1c4.3,0,7.8-3.5,7.8-7.9V1.4
									c0-0.3-0.1-0.6-0.3-0.8C57.9,0.3,57.6,0.2,57.2,0.3L57.2,0.3z M56.1,17.7v9.9c0,1.5-0.6,3-1.6,4c-1,1.1-2.4,1.7-3.9,1.7
									h-0.2c-1.5,0-2.9-0.6-4-1.7c-1.1-1.1-1.7-2.5-1.7-4v-9.9c0-3.1,2.5-5.6,5.6-5.6h0.2C53.7,12.1,56.1,14.6,56.1,17.7
									L56.1,17.7z M72.1,9.7H72c-4.3,0-7.8,3.5-7.8,7.9v10.1c0,4.3,3.5,7.9,7.8,7.9h0.2c2.9,0.1,5.6-1.5,6.8-4.1
									c0.2-0.5,0-1.1-0.5-1.4c-0.5-0.3-1.1-0.1-1.4,0.3c-0.9,1.9-2.8,3-4.9,2.9H72c-1.5,0-2.9-0.6-4-1.6c-1.1-1.1-1.6-2.5-1.6-4
									v-3.8h12.4c0.3,0,0.6-0.1,0.8-0.3c0.2-0.2,0.3-0.5,0.3-0.8v-5.2C79.9,13.2,76.4,9.7,72.1,9.7L72.1,9.7z M77.7,17.6v3.9H66.5
									v-3.9c0-1.5,0.6-2.9,1.6-4c1-1.1,2.5-1.6,3.9-1.6h0.2c1.5,0,2.9,0.6,3.9,1.7S77.7,16.1,77.7,17.6L77.7,17.6z M100.1,29.9
									c-0.2-0.2-0.6-0.2-0.8-0.1c-0.3,0.1-0.5,0.3-0.6,0.6c-0.9,1.9-2.8,3-4.9,2.9h-0.2c-1.5,0-2.9-0.6-4-1.7s-1.6-2.5-1.6-4V17.5
									c0-1.5,0.6-2.9,1.6-4c1-1.1,2.5-1.7,4-1.6h0.2c2.1-0.1,4,1.1,4.9,2.9c0.1,0.3,0.3,0.5,0.6,0.6s0.6,0,0.8-0.1
									c0.3-0.1,0.5-0.3,0.6-0.6c0.1-0.3,0-0.6-0.1-0.8c-1.3-2.6-4-4.2-6.8-4.1h-0.1c-4.3,0-7.8,3.5-7.8,7.9v10.1
									c0,4.3,3.5,7.9,7.8,7.9h0.2c2.9,0.1,5.6-1.5,6.8-4.1c0.2-0.3,0.3-0.6,0.2-0.9C100.6,30.3,100.4,30,100.1,29.9L100.1,29.9z
									 M115.2,9.8H115c-2.1,0-4.2,0.9-5.6,2.4V1.4c0-0.6-0.5-1.1-1.1-1.1s-1.1,0.5-1.1,1.1v33c0,0.6,0.5,1.1,1.1,1.1
									s1.1-0.5,1.1-1.1V17.7c0-3.1,2.5-5.6,5.6-5.6h0.2c3.1,0,5.6,2.5,5.6,5.6v16.7c0,0.6,0.5,1.1,1.1,1.1s1.1-0.5,1.1-1.1V17.7
									C122.9,13.4,119.5,9.8,115.2,9.8L115.2,9.8z M136.7,9.7h-0.2c-4.3,0-7.8,3.5-7.8,7.9v10.1c0,4.3,3.5,7.9,7.8,7.9h0.2
									c2.9,0.1,5.6-1.5,6.8-4.1c0.2-0.5,0-1.1-0.5-1.4c-0.5-0.3-1.1-0.1-1.4,0.3c-0.9,1.9-2.8,3-4.9,2.9h-0.2
									c-1.5,0-2.9-0.6-4-1.6c-1.1-1.1-1.6-2.5-1.6-4v-3.8h12.4c0.3,0,0.6-0.1,0.8-0.3s0.3-0.5,0.3-0.8v-5.2
									C144.4,13.2,141,9.7,136.7,9.7L136.7,9.7z M142.3,17.6v3.9H131v-3.9c0-1.5,0.6-2.9,1.6-4c1-1.1,2.5-1.6,3.9-1.6h0.2
									c1.5,0,2.9,0.6,3.9,1.7C141.7,14.6,142.3,16.1,142.3,17.6L142.3,17.6z M164.7,29.9c-0.2-0.2-0.6-0.2-0.8-0.1
									c-0.3,0.1-0.5,0.3-0.6,0.6c-0.9,1.9-2.8,3-4.9,2.9h-0.2c-1.5,0-3-0.6-4-1.6s-1.7-2.5-1.7-4V17.5c0-1.5,0.6-2.9,1.6-4
									c1-1.1,2.5-1.7,4-1.6h0.2c2.1-0.1,4,1.1,4.9,2.9c0.1,0.3,0.3,0.5,0.6,0.6c0.3,0.1,0.6,0,0.8-0.1c0.3-0.1,0.5-0.3,0.6-0.6
									c0.1-0.3,0-0.6-0.1-0.8c-1.3-2.6-4-4.2-6.8-4.1h-0.2c-4.3,0-7.8,3.5-7.8,7.9v10.1c0,4.3,3.5,7.9,7.8,7.9h0.2
									c2.9,0.1,5.6-1.5,6.8-4.1c0.2-0.3,0.3-0.6,0.2-0.9C165.2,30.3,165,30,164.7,29.9L164.7,29.9z"/>
								<g id="Shape_2_" transform="translate(171.709488, 0.275434)">
									<path class="st0" d="M2.4,1.2c0-0.3-0.1-0.6-0.3-0.9S1.5,0,1.2,0C0.9,0,0.6,0.1,0.4,0.3S0.1,0.9,0.1,1.2V22l2.2-2.2V1.2
										L2.4,1.2z M0.1,25.2v8.9c0,0.3,0.1,0.6,0.3,0.8s0.5,0.3,0.8,0.3c0.3,0,0.6-0.1,0.8-0.3c0.2-0.2,0.3-0.5,0.3-0.8V23
										L0.1,25.2z"/>
									<path class="st0" d="M2.4,19.8L0.1,22v3.2L2.4,23V19.8L2.4,19.8z M5.3,17l-1.7,1.6l1.2,2l1.7-1.6L5.3,17L5.3,17z"/>
									<path class="st0" d="M14.9,10c-0.1-0.2-0.2-0.4-0.3-0.6C14.3,9.2,14,9,13.7,9S13.2,9.2,13,9.4L5.3,17l-1.7,1.6l-1.3,1.2
										L0.2,22v3.2L2.4,23l2.5-2.4l1.6-1.6l8-7.9C14.8,10.8,14.9,10.4,14.9,10L14.9,10z"/>
									<path class="st0" d="M14.9,33.3L3.4,20.8l-1.6-1.7L0.6,21l1.6,1.7l11.2,12.1c0.2,0.3,0.6,0.4,1,0.4
										c0.2-0.1,0.4-0.2,0.6-0.3c0.2-0.2,0.4-0.5,0.4-0.7S15.1,33.5,14.9,33.3L14.9,33.3z"/>
								</g>
							</g>
						</g>
					</g>
				</g>
			</g>
		</g>
	</g>
</g>
</svg>
