<?xml version="1.0" encoding="utf-8"?>
<!-- Generator: Adobe Illustrator 20.1.0, SVG Export Plug-In . SVG Version: 6.00 Build 0)  -->
<svg version="1.1" id="レイヤー_1" xmlns="http://www.w3.org/2000/svg" xmlns:xlink="http://www.w3.org/1999/xlink" x="0px"
	 y="0px" viewBox="0 0 248 37" style="enable-background:new 0 0 248 37;" xml:space="preserve">
<style type="text/css">
	.st0{fill:#2375BB;}
	.st1{fill:#219A4E;}
	.st2{fill:#944394;}
	.st3{fill:#ED7B30;}
	.st4{fill:#221714;}
</style>
<g>
	<g>
		<g>
			<path class="st0" d="M28.2,7.8H8.9c-1.2,0-2.1-1-2.1-2.1s1-2.1,2.1-2.1h19.2c1.2,0,2.1,1,2.1,2.1S29.3,7.8,28.2,7.8z"/>
		</g>
		<g>
			<path class="st1" d="M15,17.4H2.1c-1.2,0-2.1-1-2.1-2.1s1-2.1,2.1-2.1H15c1.2,0,2.1,1,2.1,2.1S16.2,17.4,15,17.4z"/>
		</g>
		<g>
			<path class="st2" d="M15,26.9H2.1C1,26.9,0,26,0,24.8s1-2.1,2.1-2.1H15c1.2,0,2.1,1,2.1,2.1S16.2,26.9,15,26.9z"/>
		</g>
		<g>
			<path class="st3" d="M27.8,36.5H8.6c-1.2,0-2.1-1-2.1-2.1c0-1.2,1-2.1,2.1-2.1h19.2c1.2,0,2.1,1,2.1,2.1
				C29.9,35.5,29,36.5,27.8,36.5z"/>
		</g>
	</g>
	<g>
		<g>
			<path class="st4" d="M64.2,30.7c-0.7-0.4-1.2-0.2-1.6,0.5c-1.1,2-2.8,3-5.1,3h-0.2c-1.6,0-3-0.6-4.1-1.7
				c-1.1-1.1-1.7-2.5-1.7-4.2V17.9c0-1.6,0.6-3,1.7-4.1c1.1-1.1,2.5-1.7,4.1-1.7h0.2c2.3,0,4,1,5.1,3c0.3,0.7,0.9,0.8,1.5,0.5
				c0.7-0.4,0.8-0.9,0.5-1.6c-1.5-2.8-3.9-4.3-7.2-4.3h-0.2c-2.2,0-4.2,0.8-5.8,2.4c-1.6,1.6-2.4,3.5-2.4,5.8v10.5
				c0,2.2,0.8,4.2,2.4,5.8c1.6,1.6,3.5,2.4,5.8,2.4h0.2c3.2,0,5.6-1.4,7.2-4.3C65,31.6,64.8,31.1,64.2,30.7z"/>
			<path class="st4" d="M79.1,9.8h-0.2c-2.2,0-4.2,0.8-5.8,2.4c-1.6,1.6-2.4,3.5-2.4,5.8v10.5c0,2.2,0.8,4.2,2.4,5.8
				c1.6,1.6,3.5,2.4,5.8,2.4h0.2c2.2,0,4.2-0.8,5.8-2.4c1.6-1.6,2.4-3.5,2.4-5.8V17.9c0-2.2-0.8-4.2-2.4-5.8
				C83.3,10.6,81.4,9.8,79.1,9.8z M85,17.9v10.5c0,1.6-0.6,3-1.7,4.2c-1.1,1.1-2.5,1.7-4.1,1.7H79c-1.6,0-3-0.6-4.1-1.7
				c-1.1-1.1-1.7-2.5-1.7-4.2V17.9c0-1.6,0.6-3,1.7-4.1c1.1-1.1,2.5-1.7,4.1-1.7h0.2c1.6,0,3,0.6,4.1,1.7C84.4,14.9,85,16.3,85,17.9
				z"/>
			<path class="st4" d="M108.7,0c-0.8,0-1.2,0.4-1.2,1.1v11.3c-1.6-1.7-3.6-2.5-5.9-2.5h-0.2c-2.2,0-4.2,0.8-5.7,2.4
				c-1.6,1.6-2.4,3.5-2.4,5.8v10.2c0,2.2,0.8,4.2,2.4,5.8c1.6,1.6,3.5,2.4,5.8,2.4h0.2c2.2,0,4.2-0.8,5.8-2.4
				c1.6-1.6,2.4-3.5,2.4-5.8V1.1C109.9,0.4,109.5,0,108.7,0z M107.6,18.1v10.2c0,1.6-0.6,3-1.7,4.2c-1.1,1.1-2.5,1.7-4.1,1.7h-0.2
				c-1.6,0-3-0.6-4.1-1.7c-1.1-1.1-1.7-2.5-1.7-4.2V18.1c0-1.6,0.6-3,1.7-4.1c1.1-1.1,2.5-1.7,4.1-1.7h0.2c1.6,0,3,0.6,4.1,1.7
				C107,15.1,107.6,16.5,107.6,18.1z"/>
			<path class="st4" d="M124.3,9.8h-0.2c-2.2,0-4.2,0.8-5.8,2.4c-1.6,1.6-2.4,3.5-2.4,5.8v10.5c0,2.2,0.8,4.2,2.4,5.8
				c1.6,1.6,3.5,2.4,5.8,2.4h0.2c3.2,0,5.6-1.4,7.2-4.3c0.4-0.6,0.2-1.2-0.4-1.5c-0.7-0.4-1.2-0.2-1.6,0.4c-1.1,2-2.8,3-5.1,3h-0.2
				c-1.6,0-3-0.6-4.1-1.7c-1.1-1.1-1.7-2.5-1.7-4.1v-4c0-0.1,0-0.1,0.1-0.1h13c0.7,0,1.1-0.4,1.1-1.1v-5.3c0-2.2-0.8-4.2-2.4-5.8
				C128.5,10.6,126.5,9.8,124.3,9.8z M130.1,17.9v4c0,0,0,0.1-0.1,0.1h-11.7c-0.1,0-0.1,0-0.1-0.1v-4c0-1.6,0.6-3,1.7-4.1
				c1.1-1.1,2.5-1.7,4.1-1.7h0.2c1.6,0,3,0.6,4.1,1.7C129.6,14.9,130.1,16.3,130.1,17.9z"/>
			<path class="st4" d="M153.6,30.7c-0.7-0.4-1.2-0.2-1.6,0.5c-1.1,2-2.8,3-5.1,3h-0.2c-1.6,0-3-0.6-4.1-1.7
				c-1.1-1.1-1.7-2.5-1.7-4.2V17.9c0-1.6,0.6-3,1.7-4.1c1.1-1.1,2.5-1.7,4.1-1.7h0.2c2.3,0,4,1,5.1,3c0.3,0.7,0.9,0.8,1.5,0.5
				c0.7-0.4,0.8-0.9,0.5-1.6c-1.5-2.8-3.9-4.3-7.2-4.3h-0.2c-2.2,0-4.2,0.8-5.8,2.4c-1.6,1.6-2.4,3.5-2.4,5.8v10.5
				c0,2.2,0.8,4.2,2.4,5.8c1.6,1.6,3.5,2.4,5.8,2.4h0.2c3.2,0,5.6-1.4,7.2-4.3C154.4,31.6,154.3,31.1,153.6,30.7z"/>
			<path class="st4" d="M169.4,9.9h-0.2c-2.3,0-4.3,0.8-5.9,2.5V1.1c0-0.7-0.4-1.1-1.2-1.1c-0.8,0-1.2,0.4-1.2,1.1v34.2
				c0,0.7,0.4,1.1,1.2,1.1c0.8,0,1.2-0.4,1.2-1.1V18.1c0-1.6,0.6-3,1.7-4.1c1.1-1.1,2.5-1.7,4.1-1.7h0.2c1.6,0,3,0.6,4.1,1.7
				c1.1,1.1,1.7,2.5,1.7,4.1v17.3c0,0.7,0.4,1.1,1.2,1.1s1.2-0.4,1.2-1.1V18.1c0-2.2-0.8-4.2-2.4-5.8
				C173.6,10.7,171.6,9.9,169.4,9.9z"/>
			<path class="st4" d="M192,9.8h-0.2c-2.2,0-4.2,0.8-5.8,2.4c-1.6,1.6-2.4,3.5-2.4,5.8v10.5c0,2.2,0.8,4.2,2.4,5.8
				c1.6,1.6,3.5,2.4,5.8,2.4h0.2c3.2,0,5.6-1.4,7.2-4.3c0.4-0.6,0.2-1.2-0.4-1.5c-0.7-0.4-1.2-0.2-1.6,0.4c-1.1,2-2.8,3-5.1,3h-0.2
				c-1.6,0-3-0.6-4.1-1.7c-1.1-1.1-1.7-2.5-1.7-4.1v-4c0-0.1,0-0.1,0.1-0.1h13c0.7,0,1.1-0.4,1.1-1.1v-5.3c0-2.2-0.8-4.2-2.4-5.8
				C196.1,10.6,194.2,9.8,192,9.8z M197.8,17.9v4c0,0,0,0.1-0.1,0.1H186c-0.1,0-0.1,0-0.1-0.1v-4c0-1.6,0.6-3,1.7-4.1
				c1.1-1.1,2.5-1.7,4.1-1.7h0.2c1.6,0,3,0.6,4.1,1.7C197.2,14.9,197.8,16.3,197.8,17.9z"/>
			<path class="st4" d="M221.2,30.7c-0.7-0.4-1.2-0.2-1.6,0.5c-1.1,2-2.8,3-5.1,3h-0.2c-1.6,0-3-0.6-4.1-1.7
				c-1.1-1.1-1.7-2.5-1.7-4.2V17.9c0-1.6,0.6-3,1.7-4.1c1.1-1.1,2.5-1.7,4.1-1.7h0.2c2.3,0,4,1,5.1,3c0.3,0.7,0.9,0.8,1.5,0.5
				c0.7-0.4,0.8-0.9,0.5-1.6c-1.5-2.8-3.9-4.3-7.2-4.3h-0.2c-2.2,0-4.2,0.8-5.8,2.4c-1.6,1.6-2.4,3.5-2.4,5.8v10.5
				c0,2.2,0.8,4.2,2.4,5.8c1.6,1.6,3.5,2.4,5.8,2.4h0.2c3.2,0,5.6-1.4,7.2-4.3C222,31.6,221.9,31.1,221.2,30.7z"/>
		</g>
		<g>
			<g>
				<path class="st4" d="M231.1,1.2c0-0.8-0.4-1.2-1.2-1.2c-0.7,0-1.1,0.4-1.1,1.2v21.6l2.3-2.3V1.2z"/>
				<path class="st4" d="M228.7,26.1v9.2c0,0.7,0.4,1.1,1.1,1.1c0.8,0,1.2-0.4,1.2-1.1V23.8L228.7,26.1z"/>
				<polygon class="st4" points="231.1,20.6 228.7,22.8 228.7,26.1 231.1,23.8 				"/>
			</g>
			<polygon class="st4" points="234.1,17.6 232.4,19.3 233.6,21.3 235.4,19.6 			"/>
			<path class="st4" d="M244.1,10.4c0-0.2-0.2-0.4-0.4-0.6c-0.5-0.5-1.1-0.5-1.6,0l-8,7.8l-1.7,1.7l-1.3,1.3l-2.3,2.3v3.3l2.3-2.3
				l2.6-2.5l1.7-1.7l8.4-8.2C244.1,11.1,244.2,10.7,244.1,10.4z"/>
			<path class="st4" d="M244.2,34.5l-12-12.9l-1.6-1.8l-1.4,2l1.6,1.8l11.7,12.5c0.3,0.3,0.7,0.5,1,0.4c0.2,0,0.4-0.2,0.6-0.4
				C244.7,35.6,244.7,35.1,244.2,34.5z"/>
		</g>
	</g>
</g>
</svg>
